<svg width="48" height="48" viewBox="0 0 48 48" fill="none" xmlns="http://www.w3.org/2000/svg">
<rect width="48" height="48" rx="24" fill="#E1E1E6"/>
<path fill-rule="evenodd" clip-rule="evenodd" d="M19.5258 17.2986C19.8615 17.6823 19.8226 18.2655 19.439 18.6012L12.8483 24.368L19.439 30.1349C19.8226 30.4706 19.8615 31.0538 19.5258 31.4374C19.1901 31.8211 18.6069 31.86 18.2233 31.5243L10.8387 25.0627C10.6383 24.8874 10.5234 24.6342 10.5234 24.368C10.5234 24.1018 10.6383 23.8486 10.8387 23.6733L18.2233 17.2118C18.6069 16.8761 19.1901 16.915 19.5258 17.2986Z" fill="#015F43"/>
<path fill-rule="evenodd" clip-rule="evenodd" d="M29.2134 17.2986C29.5491 16.915 30.1322 16.8761 30.5159 17.2118L37.9005 23.6733C38.1008 23.8486 38.2157 24.1018 38.2157 24.368C38.2157 24.6342 38.1008 24.8874 37.9005 25.0627L30.5159 31.5243C30.1322 31.86 29.5491 31.8211 29.2134 31.4374C28.8777 31.0538 28.9165 30.4706 29.3002 30.1349L35.8909 24.368L29.3002 18.6012C28.9165 18.2655 28.8777 17.6823 29.2134 17.2986Z" fill="#015F43"/>
</svg>
